:version 1.10
:name ASF
:units
  mass 1
  length 1
  angle deg
:documentation
  ASF file generated by Kaydara
:root
  axis xyz
  order  tx ty tz rx ry rz
  position 0 0 0
  orientation 0 0 0
:bonedata
  begin
    id 1
    name RightUpLegDummy
    direction -1 2.30186e-007 8.31532e-007
    length 4.46685
    axis 0 0 0 xyz
  end
  begin
    id 2
    name RightUpLeg
    direction -2.30187e-007 -1 1.24343e-010
    length 16.4045
    axis -3.49089 -0.000906625 0.000286804 xyz
    dof rx ry rz
  end
  begin
    id 3
    name RightLeg
    direction -2.30181e-007 -1 -4.17157e-009
    length 17.5097
    axis 3.68512 0.0193738 -0.131023 xyz
    dof rx ry rz
  end
  begin
    id 4
    name RightFoot
    direction 8.31421e-007 -4.51202e-011 1
    length 6.49508
    axis 4.81691e-005 -0.120479 -0.188788 xyz
    dof rx ry rz
  end
  begin
    id 5
    name RightToes
    direction 0.00124746 -0.014064 0.9999
    length 3.85082
    axis 0.000481921 0.542163 -0.142578 xyz
    dof rx ry rz
  end
  begin
    id 6
    name SpineDummy
    direction 0.0717043 0.9409 -0.331007
    length 10.0032
    axis 0 0 0 xyz
  end
  begin
    id 7
    name Spine
    direction 2.30186e-007 1 4.58806e-011
    length 9.84055
    axis -0.001389 0.000121418 2.40972e-006 xyz
    dof rx ry rz
  end
  begin
    id 8
    name Spine1
    direction 0 0 0
    length 0
    axis -0.001389 0.000121451 1.30017e-006 xyz
    dof rx ry rz
  end
  begin
    id 9
    name HEadDummy
    direction -0.00347485 0.950688 -0.310128
    length 8.00997
    axis -0.001389 0.000121451 1.30017e-006 xyz
  end
  begin
    id 10
    name HEad
    direction -0.0222688 0.980941 0.193023
    length 5.12695
    axis -0.001389 0.000121451 1.30017e-006 xyz
    dof rx ry rz
  end
  begin
    id 11
    name LeftShoulder1Dummy
    direction 0.988871 0.146793 -0.0242004
    length 3.5792
    axis -0.001389 0.000121451 1.30017e-006 xyz
  end
  begin
    id 12
    name LeftShoulder1
    direction 0.993832 0.108932 0.020779
    length 4.16823
    axis -0.001389 0.000121451 1.30017e-006 xyz
    dof rx ry rz
  end
  begin
    id 13
    name LeftArm
    direction 1 3.44807e-006 -8.31404e-007
    length 9.91437
    axis -23.1894 0.134784 0.967509 xyz
    dof rx ry rz
  end
  begin
    id 14
    name LeftForeArm
    direction 1 3.44842e-006 -8.31581e-007
    length 9.08575
    axis -9.91835 -0.06569 -0.177793 xyz
    dof rx ry rz
  end
  begin
    id 15
    name LeftHand
    direction 0.992938 -0.0411636 0.11126
    length 5.32135
    axis -0.00960232 -0.00340091 0.185173 xyz
    dof rx ry rz
  end
  begin
    id 16
    name RightShoulderDummy
    direction -0.988871 0.146793 -0.0241962
    length 3.5792
    axis -0.001389 0.000121451 1.30017e-006 xyz
  end
  begin
    id 17
    name RightShoulder
    direction -0.993832 0.108933 0.0207785
    length 4.16823
    axis 0.215806 0.000203643 -0.0068026 xyz
    dof rx ry rz
  end
  begin
    id 18
    name RightArm
    direction -1 3.90912e-006 8.31284e-007
    length 9.91437
    axis -23.2009 -0.134239 -0.964101 xyz
    dof rx ry rz
  end
  begin
    id 19
    name RightForeArm
    direction -1 3.90882e-006 8.31502e-007
    length 9.08575
    axis -9.92322 0.0658061 0.178867 xyz
    dof rx ry rz
  end
  begin
    id 20
    name RightHand
    direction -0.992843 -0.0414603 0.112003
    length 5.28593
    axis -0.00960638 0.00330671 -0.185228 xyz
    dof rx ry rz
  end
  begin
    id 21
    name LeftUpLegDummy
    direction 1 -2.30186e-007 -8.31532e-007
    length 4.46685
    axis 0 0 0 xyz
  end
  begin
    id 22
    name LeftUpLeg
    direction -2.30187e-007 -1 6.00931e-010
    length 16.4045
    axis -3.48766 0.00143442 -0.000524262 xyz
    dof rx ry rz
  end
  begin
    id 23
    name LeftLeg
    direction -2.30187e-007 -1 1.6669e-009
    length 17.5097
    axis 3.68178 -0.00654042 -0.000285133 xyz
    dof rx ry rz
  end
  begin
    id 24
    name LeftFoot
    direction 8.31532e-007 -4.54478e-011 1
    length 6.49508
    axis 1.87233e-006 4.66016e-005 -8.6538e-006 xyz
    dof rx ry rz
  end
  begin
    id 25
    name LeftToes
    direction 0.00818058 -0.00485161 0.999955
    length 3.85048
    axis 1.06247e-005 4.65869e-005 -8.65513e-006 xyz
    dof rx ry rz
  end
:hierarchy
  begin
    root RightUpLegDummy SpineDummy LeftUpLegDummy
    RightUpLegDummy RightUpLeg
    RightUpLeg RightLeg
    RightLeg RightFoot
    RightFoot RightToes
    SpineDummy Spine
    Spine Spine1
    Spine1 HEadDummy LeftShoulder1Dummy RightShoulderDummy
    HEadDummy HEad
    LeftShoulder1Dummy LeftShoulder1
    LeftShoulder1 LeftArm
    LeftArm LeftForeArm
    LeftForeArm LeftHand
    RightShoulderDummy RightShoulder
    RightShoulder RightArm
    RightArm RightForeArm
    RightForeArm RightHand
    LeftUpLegDummy LeftUpLeg
    LeftUpLeg LeftLeg
    LeftLeg LeftFoot
    LeftFoot LeftToes
  end

:SAMPLES-PER-SECOND 30
:FULLY-SPECIFIED
:DEGREES
1
root  -60.1991 33.7579 9.40361 -3.21148 46.0341 -0.960901
RightUpLeg  8.66629 -14.7018 0.351926
RightLeg  8.78243 -2.95365 -0.261749
RightFoot  -5.13885 -0.00737451 0.251436
RightToes  -20.2495 -0.0894518 -0.186843
Spine  3.71787 -3.04306 1.36137
Spine1  7.25035 -6.05271 2.2429
HEad  23.9664 29.7486 0.996284
LeftShoulder1  0 -2.42657e-020 -4.95415e-022
LeftArm  -40.3289 7.69804 -59.7288
LeftForeArm  48.1932 -26.4244 -4.99727
LeftHand  0.498565 -10.6468 -5.72038
RightShoulder  0 2.42657e-020 1.07489e-018
RightArm  -75.7967 -23.5449 76.8192
RightForeArm  -24.8942 66.8527 24.2333
RightHand  1.11962 8.64263 15.1167
LeftUpLeg  -7.44555 11.3243 8.52911
LeftLeg  4.09327 -12.183 -0.0873045
LeftFoot  17.7087 0.593904 -3.8111
LeftToes  -21.2436 1.71452e-006 7.46813e-008
2
root  -60.1606 33.7608 9.39496 -3.18157 45.9866 -0.972363
RightUpLeg  8.64833 -14.7864 0.262249
RightLeg  8.82145 -2.78885 -0.249001
RightFoot  -5.08955 -0.00632825 0.235194
RightToes  -20.3425 -0.0894518 -0.186843
Spine  3.71377 -3.07254 1.36136
Spine1  7.24212 -6.11593 2.26097
HEad  22.1462 30.392 0.55504
LeftShoulder1  0 -2.42657e-020 -4.95415e-022
LeftArm  -40.38 7.73372 -60.0646
LeftForeArm  48.9693 -25.1588 -4.71962
LeftHand  0.420246 -11.0384 -4.71995
RightShoulder  0 2.42657e-020 1.07489e-018
RightArm  -76.8095 -23.3067 77.153
RightForeArm  -25.2686 66.3412 23.6082
RightHand  1.21999 8.97077 15.8397
LeftUpLeg  -7.30824 11.4507 8.50279
LeftLeg  3.83343 -12.276 -0.0326789
LeftFoot  17.8432 0.607484 -3.86835
LeftToes  -21.1543 1.71452e-006 7.46813e-008
3
root  -60.1009 33.7658 9.36892 -3.09319 45.9562 -0.910812
RightUpLeg  8.66199 -14.8516 0.0893056
RightLeg  8.79304 -2.63937 -0.234277
RightFoot  -5.04373 -0.00690169 0.220877
RightToes  -20.5445 -0.0894518 -0.186843
Spine  3.70354 -3.12212 1.36136
Spine1  7.22276 -6.21853 2.27292
HEad  20.811 31.1272 0.227483
LeftShoulder1  0 -2.42657e-020 -4.95415e-022
LeftArm  -40.8142 7.61739 -60.4346
LeftForeArm  50.2846 -23.5318 -4.3707
LeftHand  0.3041 -11.0381 -3.51858
RightShoulder  0 2.42657e-020 1.07489e-018
RightArm  -77.4851 -23.1942 77.3983
RightForeArm  -25.3292 66.0088 23.2183
RightHand  1.31008 9.2976 16.3882
LeftUpLeg  -7.28824 11.4482 8.37703
LeftLeg  3.80426 -12.238 -0.0263944
LeftFoot  17.8386 0.605103 -3.85421
LeftToes  -21.2552 1.71452e-006 7.46813e-008
4
root  -60.0275 33.7709 9.33092 -2.95472 45.9583 -0.785448
RightUpLeg  8.63906 -15.2675 -0.269427
RightLeg  8.89352 -2.17014 -0.196256
RightFoot  -5.03496 -0.00637019 0.181677
RightToes  -20.9271 -0.0894518 -0.186843
Spine  3.69743 -3.19381 1.36136
Spine1  7.20895 -6.36514 2.2762
HEad  19.9053 31.6745 -0.101319
LeftShoulder1  0 -2.42657e-020 -4.95415e-022
LeftArm  -41.7631 7.50408 -60.827
LeftForeArm  51.7714 -21.8586 -4.02073
LeftHand  0.201298 -11.0243 -2.45717
RightShoulder  0 2.42657e-020 1.07489e-018
RightArm  -77.6964 -23.2714 77.5214
RightForeArm  -25.3184 66.0296 23.2424
RightHand  1.33337 9.32499 16.6217
LeftUpLeg  -7.36158 11.4209 8.15174
LeftLeg  3.93137 -12.1383 -0.052929
LeftFoot  17.7476 0.593819 -3.80208
LeftToes  -20.8721 1.71452e-006 7.46813e-008
5
root  -59.9443 33.777 9.28951 -2.82307 45.7891 -0.696267
RightUpLeg  8.70709 -14.8753 -0.392393
RightLeg  8.68617 -2.31666 -0.201136
RightFoot  -4.91499 -0.00904521 0.189953
RightToes  -21.0513 -0.0894518 -0.186843
Spine  3.68521 -3.22414 1.37143
Spine1  7.18279 -6.4274 2.30103
HEad  19.0169 32.1223 -0.596838
LeftShoulder1  0 -2.42657e-020 -4.95415e-022
LeftArm  -42.7126 7.46371 -61.1824
LeftForeArm  51.6754 -20.5314 -3.75146
LeftHand  0.180862 -10.8289 -2.27941
RightShoulder  0 2.42657e-020 1.07489e-018
RightArm  -77.6297 -23.3467 77.4967
RightForeArm  -25.0906 65.7454 22.9195
RightHand  1.41729 9.70779 16.9553
LeftUpLeg  -7.29531 11.6571 7.97897
LeftLeg  3.86491 -12.1876 -0.0391009
LeftFoot  17.6982 0.592886 -3.80686
LeftToes  -20.9454 1.71452e-006 7.46813e-008
6
root  -59.8517 33.7818 9.2461 -2.62461 45.4871 -0.500715
RightUpLeg  8.64694 -14.7815 -0.719828
RightLeg  8.74655 -2.04054 -0.179184
RightFoot  -4.95086 -0.0101099 0.17031
RightToes  -21.2559 -0.0894518 -0.186843
Spine  3.69658 -3.2178 1.36015
Spine1  7.20072 -6.41763 2.29278
HEad  18.4836 32.5625 -0.994238
LeftShoulder1  0 -2.42657e-020 -4.95415e-022
LeftArm  -43.9373 7.38141 -61.5878
LeftForeArm  51.4059 -19.184 -3.48332
LeftHand  0.205653 -10.7951 -2.54789
RightShoulder  0 2.42657e-020 1.07489e-018
RightArm  -77.3123 -23.4743 77.4501
RightForeArm  -24.9694 65.6677 22.833
RightHand  1.45765 9.83612 17.2003
LeftUpLeg  -7.09697 12.0543 7.7521
LeftLeg  3.6532 -12.2757 0.0056614
LeftFoot  17.6715 0.595253 -3.82792
LeftToes  -20.9843 1.71452e-006 7.46813e-008
7
root  -59.7642 33.7858 9.19741 -2.42161 45.1266 -0.321449
RightUpLeg  8.45713 -14.6624 -1.02886
RightLeg  8.98517 -1.76172 -0.161924
RightFoot  -5.01382 -0.0114402 0.151258
RightToes  -21.409 -0.0894518 -0.188053
Spine  3.71358 -3.18824 1.34669
Spine1  7.22813 -6.36075 2.28032
HEad  17.973 32.9411 -1.41048
LeftShoulder1  0 -2.42657e-020 -4.95415e-022
LeftArm  -45.5838 7.14378 -62.1044
LeftForeArm  52.4416 -18.0845 -3.26563
LeftHand  0.215116 -10.9682 -2.61189
RightShoulder  0 2.42657e-020 1.07489e-018
RightArm  -76.7062 -23.6726 77.3454
RightForeArm  -25.0527 65.5282 22.6767
RightHand  1.50237 10.0312 17.3749
LeftUpLeg  -6.99456 12.2049 7.52942
LeftLeg  3.60549 -12.0355 0.0154974
LeftFoot  17.562 0.576029 -3.72784
LeftToes  -20.8591 1.71452e-006 7.46813e-008
8
root  -59.6774 33.7876 9.14987 -2.28543 44.8168 -0.224679
RightUpLeg  8.27009 -14.8172 -1.36375
RightLeg  9.26868 -1.23158 -0.118951
RightFoot  -5.01789 -0.0116768 0.111077
RightToes  -21.8597 -0.0920667 -0.191248
Spine  3.72851 -3.18699 1.35314
Spine1  7.23686 -6.36589 2.32609
HEad  17.5649 33.4102 -1.77881
LeftShoulder1  0 -2.42657e-020 -4.95415e-022
LeftArm  -45.46 7.49419 -62.5327
LeftForeArm  52.417 -17.6997 -3.19082
LeftHand  0.207855 -10.699 -2.5911
RightShoulder  0 2.42657e-020 1.07489e-018
RightArm  -76.3282 -23.7419 77.3961
RightForeArm  -25.0557 65.3354 22.4647
RightHand  1.5137 10.1136 17.363
LeftUpLeg  -7.04207 12.4268 7.35446
LeftLeg  3.828 -11.9054 -0.0305989
LeftFoot  17.359 0.5564 -3.64363
LeftToes  -20.8167 1.71452e-006 7.46813e-008
9
root  -59.5883 33.79 9.10296 -2.08025 44.6563 -0.0896592
RightUpLeg  8.24877 -14.9934 -1.70712
RightLeg  9.20365 -0.781195 -0.0740491
RightFoot  -4.94487 -0.0130089 0.0762806
RightToes  -22.3431 -0.0941666 -0.195202
Spine  3.70552 -3.21421 1.33696
Spine1  7.17218 -6.42534 2.32628
HEad  17.4121 33.7934 -1.9789
LeftShoulder1  0 -2.42657e-020 -4.95415e-022
LeftArm  -45.9381 7.62068 -63.1007
LeftForeArm  53.0551 -17.0702 -3.0679
LeftHand  0.208086 -10.5908 -2.61643
RightShoulder  0 2.42657e-020 1.07489e-018
RightArm  -75.9184 -23.891 77.5624
RightForeArm  -25.2968 65.1385 22.25
RightHand  1.48975 10.1647 17.0145
LeftUpLeg  -7.13718 12.4542 7.11849
LeftLeg  3.98697 -11.7291 -0.0624932
LeftFoot  17.2142 0.538621 -3.55737
LeftToes  -20.6935 1.71452e-006 7.46813e-008
10
root  -59.498 33.7881 9.05575 -1.75378 44.5895 0.104891
RightUpLeg  8.15935 -15.3592 -2.12247
RightLeg  9.16479 -0.19213 -0.017018
RightFoot  -4.93049 -0.0148758 0.0336472
RightToes  -22.7461 -0.0960496 -0.198527
Spine  3.66294 -3.25789 1.30515
Spine1  7.0631 -6.52116 2.31356
HEad  17.5214 34.161 -2.04833
LeftShoulder1  0 -2.42657e-020 -4.95415e-022
LeftArm  -46.6856 7.7085 -63.7786
LeftForeArm  53.9169 -16.3937 -2.93639
LeftHand  0.22224 -10.7062 -2.74314
RightShoulder  0 2.42657e-020 1.07489e-018
RightArm  -75.7759 -24.0446 77.9446
RightForeArm  -25.1638 65.0299 22.135
RightHand  1.4768 10.1024 16.9726
LeftUpLeg  -7.33851 12.5754 6.79918
LeftLeg  4.14222 -11.711 -0.0939299
LeftFoot  17.0559 0.527468 -3.51655
LeftToes  -20.4337 1.71452e-006 7.46813e-008
11
root  -59.415 33.7835 8.99999 -1.4622 44.4859 0.274019
RightUpLeg  7.91468 -15.5444 -2.46253
RightLeg  9.3924 0.242439 0.0256352
RightFoot  -5.10321 -0.0167057 0.00267539
RightToes  -22.9061 -0.0977969 -0.200314
Spine  3.63953 -3.26839 1.27224
Spine1  6.99557 -6.54697 2.28704
HEad  17.4097 34.4255 -2.22951
LeftShoulder1  0 -2.42657e-020 -4.95415e-022
LeftArm  -47.1404 7.85911 -64.5439
LeftForeArm  54.1772 -16.0297 -2.86642
LeftHand  0.254497 -10.7231 -3.08315
RightShoulder  0 2.42657e-020 1.07489e-018
RightArm  -75.4818 -24.2986 78.4219
RightForeArm  -24.9455 64.9607 22.0632
RightHand  1.48362 10.2232 16.8529
LeftUpLeg  -7.57848 12.8456 6.4969
LeftLeg  4.37382 -11.8094 -0.142133
LeftFoot  16.8845 0.521062 -3.50964
LeftToes  -20.2298 1.71452e-006 7.46813e-008
12
root  -59.3222 33.7767 8.95762 -1.08836 44.4249 0.558231
RightUpLeg  7.65999 -15.7746 -2.88932
RightLeg  9.70063 0.648393 0.0697237
RightFoot  -5.3211 -0.0165866 -0.0279351
RightToes  -23.114 -0.0994895 -0.201472
Spine  3.63038 -3.28854 1.1846
Spine1  6.95996 -6.59015 2.15496
HEad  17.3013 34.8335 -2.23403
LeftShoulder1  0 -2.42657e-020 -4.95415e-022
LeftArm  -47.6718 7.98849 -65.3272
LeftForeArm  54.6462 -15.7115 -2.80499
LeftHand  0.257021 -10.6051 -3.14073
RightShoulder  0 2.42657e-020 1.07489e-018
RightArm  -75.3065 -24.4941 79.0798
RightForeArm  -24.8518 64.8027 21.8979
RightHand  1.51373 10.2807 17.0894
LeftUpLeg  -7.80272 13.1241 6.10941
LeftLeg  4.61131 -11.9429 -0.192893
LeftFoot  16.6769 0.513869 -3.50491
LeftToes  -19.8302 1.71452e-006 7.46813e-008
13
root  -59.2364 33.7676 8.92329 -0.894263 44.4758 0.718077
RightUpLeg  7.5107 -15.9182 -3.19629
RightLeg  10.0062 0.846013 0.0950998
RightFoot  -5.49909 -0.0167568 -0.0415714
RightToes  -23.3679 -0.101018 -0.203334
Spine  3.69607 -3.31608 1.12033
Spine1  7.07149 -6.65043 2.06452
HEad  16.8199 34.9572 -2.54423
LeftShoulder1  0 -2.42657e-020 -4.95415e-022
LeftArm  -47.7643 8.0052 -66.1239
LeftForeArm  54.8868 -15.5006 -2.76452
LeftHand  0.2486 -10.6984 -3.02647
RightShoulder  0 2.42657e-020 1.07489e-018
RightArm  -74.9933 -24.7482 79.7578
RightForeArm  -24.5995 64.6284 21.719
RightHand  1.61856 10.6921 17.5485
LeftUpLeg  -8.01844 13.1561 5.84768
LeftLeg  4.96898 -11.9946 -0.268111
LeftFoot  16.4184 0.500092 -3.46543
LeftToes  -19.6946 1.71452e-006 7.46813e-008
14
root  -59.1471 33.7571 8.89894 -0.683245 44.6205 0.912764
RightUpLeg  7.41968 -16.1042 -3.5147
RightLeg  10.259 0.952832 0.111174
RightFoot  -5.6074 -0.0168807 -0.0464862
RightToes  -23.8524 -0.102447 -0.207052
Spine  3.7178 -3.35223 1.0381
Spine1  7.09593 -6.72657 1.94141
HEad  16.5929 35.1391 -2.63239
LeftShoulder1  0 -2.42657e-020 -4.95415e-022
LeftArm  -47.6566 8.11316 -66.9115
LeftForeArm  55.0875 -15.3262 -2.73111
LeftHand  0.243909 -10.7583 -2.96175
RightShoulder  0 2.42657e-020 1.07489e-018
RightArm  -74.7887 -25.0997 80.4184
RightForeArm  -24.6487 64.4547 21.5411
RightHand  1.66772 10.7225 18.0126
LeftUpLeg  -8.22289 13.1566 5.56554
LeftLeg  5.3069 -12.1291 -0.342151
LeftFoot  16.1906 0.491739 -3.45615
LeftToes  -19.6811 1.71452e-006 7.46813e-008
15
root  -59.0623 33.7472 8.87346 -0.499549 44.8435 1.09282
RightUpLeg  7.28845 -16.066 -3.73089
RightLeg  10.6043 0.732694 0.0902517
RightFoot  -5.81258 -0.0185961 -0.0202954
RightToes  -23.767 -0.103829 -0.209289
Spine  3.74954 -3.38735 0.958844
Spine1  7.13684 -6.80258 1.82907
HEad  16.414 35.2775 -2.72192
LeftShoulder1  0 -2.42657e-020 -4.95415e-022
LeftArm  -47.4073 8.15807 -67.6596
LeftForeArm  55.3894 -15.2167 -2.70981
LeftHand  0.258732 -10.8218 -3.10297
RightShoulder  0 2.42657e-020 1.07489e-018
RightArm  -74.7956 -25.391 81.1166
RightForeArm  -24.9733 64.3935 21.4767
RightHand  1.68203 11.3623 17.1679
LeftUpLeg  -8.47662 13.059 5.27542
LeftLeg  5.72399 -12.1837 -0.431823
LeftFoot  15.9295 0.478097 -3.41611
LeftToes  -19.3875 1.71452e-006 7.46813e-008
